<svg xmlns="http://www.w3.org/2000/svg" width="148.273" height="37.593" viewBox="0 0 148.273 37.593">
  <g id="グループ_72" data-name="グループ 72" transform="translate(-7147.727 3487.878)">
    <path id="パス_55" data-name="パス 55" d="M371.638,423.663a.5.5,0,0,1,.135-.349.478.478,0,0,1,.37-.146h3.331a.524.524,0,0,1,.349.135.454.454,0,0,1,.17.359v12.209h6.322l-1.21,3.137a1.416,1.416,0,0,0-.076.835h-8.9a.435.435,0,0,1-.494-.492Z" transform="translate(6828 -3900.376)" fill="#bd20ff" fill-rule="evenodd"/>
    <path id="パス_56" data-name="パス 56" d="M464.3,423.664a.451.451,0,0,1,.154-.359.54.54,0,0,1,.373-.135h12.09a.559.559,0,0,1,.359.124.5.5,0,0,1,.181.37v2.793a.622.622,0,0,1-.138.386.484.484,0,0,1-.4.186h-3.877v12.287a.54.54,0,0,1-.146.365.489.489,0,0,1-.384.162h-3.3a.54.54,0,0,1-.359-.151.489.489,0,0,1-.168-.376v-12.29h-3.861a.513.513,0,0,1-.373-.146.562.562,0,0,1-.154-.427Z" transform="translate(6760.372 -3900.377)" fill="#bd20ff" fill-rule="evenodd"/>
    <path id="パス_57" data-name="パス 57" d="M519.849,423.674a.54.54,0,0,1,.13-.376.478.478,0,0,1,.365-.141h11.141a.5.5,0,0,1,.384.146.556.556,0,0,1,.135.392v2.783a.591.591,0,0,1-.135.365.473.473,0,0,1-.394.176h-7.262V429.8h5.611a.589.589,0,0,1,.354.1.386.386,0,0,1,.138.338v2.431a.467.467,0,0,1-.122.3.449.449,0,0,1-.359.149h-5.622v2.853h7.54a.451.451,0,0,1,.505.516v2.834a.27.27,0,0,1-.089.2c-.03.211-.184.313-.462.313H520.359a.524.524,0,0,1-.359-.119.454.454,0,0,1-.135-.362Z" transform="translate(6719.828 -3900.368)" fill="#bd20ff" fill-rule="evenodd"/>
    <path id="パス_58" data-name="パス 58" d="M571.278,423.663a.486.486,0,0,1,.135-.349.478.478,0,0,1,.37-.146h3.331a.524.524,0,0,1,.349.135.481.481,0,0,1,.17.359v12.209H581.8a.5.5,0,0,1,.348.135.478.478,0,0,1,.146.37v2.956a.54.54,0,0,1-.127.349.475.475,0,0,1-.367.167H571.773a.435.435,0,0,1-.494-.492Z" transform="translate(6682.295 -3900.376)" fill="#bd20ff" fill-rule="evenodd"/>
    <path id="パス_59" data-name="パス 59" d="M620.337,433.194a3.814,3.814,0,0,0,.232,1.41,2.7,2.7,0,0,0,.605.943,2.324,2.324,0,0,0,.875.54,3.271,3.271,0,0,0,1.037.168,2.906,2.906,0,0,0,1.062-.2,2.516,2.516,0,0,0,.875-.584,2.8,2.8,0,0,0,.594-.962,3.655,3.655,0,0,0,.219-1.313v-9.537a.492.492,0,0,1,.14-.349.5.5,0,0,1,.376-.146h3.288a.54.54,0,0,1,.4.154.475.475,0,0,1,.146.34v9.475a8.375,8.375,0,0,1-.578,3.3,5.673,5.673,0,0,1-1.553,2.161,6.043,6.043,0,0,1-2.264,1.167,10.169,10.169,0,0,1-2.7.354,9.916,9.916,0,0,1-2.7-.367,6.011,6.011,0,0,1-2.269-1.189,5.792,5.792,0,0,1-1.553-2.161,8.161,8.161,0,0,1-.578-3.269v-9.472a.5.5,0,0,1,.13-.34.4.4,0,0,1,.319-.154H619.8a.605.605,0,0,1,.354.14.424.424,0,0,1,.184.354Z" transform="translate(6649.662 -3900.376)" fill="#bd20ff" fill-rule="evenodd"/>
    <path id="パス_60" data-name="パス 60" d="M677.546,423.673a.541.541,0,0,1,.124-.376.47.47,0,0,1,.37-.141h7.248a5.482,5.482,0,0,1,2.161.432,5.674,5.674,0,0,1,1.761,1.173A5.53,5.53,0,0,1,690.4,426.5a5.238,5.238,0,0,1,.43,2.118,5.074,5.074,0,0,1-.205,1.456,5.335,5.335,0,0,1-.581,1.289,5.406,5.406,0,0,1-.878,1.081,5.676,5.676,0,0,1-1.118.837l2.9,5.436c.051.105.119.23.2.37a.764.764,0,0,1,.124.37.324.324,0,0,1-.116.27.492.492,0,0,1-.322.1h-3.855a.541.541,0,0,1-.34-.111.516.516,0,0,1-.2-.3l-2.721-5.133v-3.553h.24a2.945,2.945,0,0,0,.359-.013c.105-.013.216-.019.343-.032a1.716,1.716,0,0,0,.7-.232,1.853,1.853,0,0,0,.54-.459,2.136,2.136,0,0,0,.321-.619,2.268,2.268,0,0,0,.111-.7,1.966,1.966,0,0,0-.122-.673,2.3,2.3,0,0,0-.346-.616,2.052,2.052,0,0,0-.54-.473,1.809,1.809,0,0,0-.692-.246l-.584-.041c-.184-.014-.384-.016-.6-.016h-1.54V439.35c0,.321-.173.481-.516.481H678.04a.524.524,0,0,1-.359-.119.454.454,0,0,1-.135-.362Z" transform="translate(6604.735 -3900.367)" fill="#bd20ff" fill-rule="evenodd"/>
    <path id="パス_61" data-name="パス 61" d="M416.411,423.6a.346.346,0,0,1,.076-.146.694.694,0,0,1,.149-.146.757.757,0,0,1,.192-.108.505.505,0,0,1,.192-.038h2.872a.473.473,0,0,1,.324.116,1.283,1.283,0,0,1,.2.208l.27.64,5.892,15.2a.324.324,0,0,1-.035.362.54.54,0,0,1-.424.141H422.9a.681.681,0,0,1-.394-.1.594.594,0,0,1-.222-.316c-.149-.381-.294-.765-.438-1.143s-.284-.754-.427-1.135h-5.957q-.211.57-.43,1.135c-.146.378-.292.762-.432,1.143a.562.562,0,0,1-.573.413h-3.312a.541.541,0,0,1-.351-.111.27.27,0,0,1-.051-.338Zm2.042,4.8q-.211.573-.43,1.235c-.146.44-.292.886-.432,1.335s-.286.892-.432,1.326-.292.851-.432,1.232h3.445Z" transform="translate(6799.801 -3900.37)" fill="#bd20ff" fill-rule="evenodd"/>
    <g id="グループ_71" data-name="グループ 71" transform="translate(7147.727 -3487.878)">
      <path id="パス_42" data-name="パス 42" d="M483.558,286.614,469.443,272.5a3.9,3.9,0,0,1,0-5.673L481.03,255.24l.057-.051a3.969,3.969,0,0,1,3.088-1.048,4.077,4.077,0,0,1,2.5,1.178l3.393,3.393c.086.086.168.176.246.27.078-.092.159-.181.246-.27l3.393-3.393a4.071,4.071,0,0,1,2.5-1.178,3.974,3.974,0,0,1,3.085,1.046l.057.051,11.587,11.587a3.9,3.9,0,0,1,0,5.673l-18.033,18.033a3.99,3.99,0,0,1-5.673,0l-3.831-3.831-.073-.076Zm15-30.293-.03-.027a2.491,2.491,0,0,0-1.932-.665,2.564,2.564,0,0,0-1.589.748l-3.393,3.385c-.057.054-.108.113-.159.173l-1.145,1.351-1.145-1.351c-.051-.059-.1-.119-.159-.173l-3.393-3.393a2.564,2.564,0,0,0-1.589-.748,2.491,2.491,0,0,0-1.932.665l-.03.027L470.5,267.875a2.4,2.4,0,0,0,0,3.555l14.129,14.129v.013l.046.049,3.831,3.831a2.494,2.494,0,0,0,3.569,0L510.11,271.42a2.4,2.4,0,0,0,0-3.555Z" transform="translate(-468.218 -254.122)" fill="#bd20ff" fill-rule="evenodd"/>
      <path id="パス_43" data-name="パス 43" d="M532.816,294.373l4.225,4.225-7.616,7.616L521.81,298.6l4.225-4.228,3.391,3.391Z" transform="translate(-507.332 -283.497)" fill="#bd20ff" fill-rule="evenodd"/>
      <path id="パス_44" data-name="パス 44" d="M497.759,286.3l-8.359-8.375,7.094-7.094a.824.824,0,0,0,.246-.557.775.775,0,0,0-.27-.592l-3.382-3.374a.87.87,0,0,0-.54-.254.784.784,0,0,0-.613.227L480.4,277.814a.708.708,0,0,0,0,1.135L492.856,291.4a2.6,2.6,0,0,1,.411-.6l.027-.032Z" transform="translate(-476.902 -262.829)" fill="#bd20ff" fill-rule="evenodd"/>
      <path id="パス_45" data-name="パス 45" d="M537.979,296.971a.81.81,0,0,1-.557.243.767.767,0,0,1-.592-.257L533,293.127a.835.835,0,0,1-.246-.557.784.784,0,0,1,.219-.605l14.035-14.048-7.094-7.1a.811.811,0,0,1-.246-.554.775.775,0,0,1,.27-.592l3.382-3.366a.87.87,0,0,1,.54-.254.783.783,0,0,1,.613.227l11.533,11.533a.708.708,0,0,1,0,1.135Z" transform="translate(-515.317 -262.829)" fill="#bd20ff" fill-rule="evenodd"/>
    </g>
  </g>
</svg>
